<svg width="19" height="20" viewBox="0 0 19 20" fill="none" xmlns="http://www.w3.org/2000/svg">
<path fill-rule="evenodd" clip-rule="evenodd" d="M16.9438 9.28988C17.1308 9.50015 17.2341 9.77181 17.234 10.0532V16.0732C17.2326 17.3417 16.2046 18.3696 14.9361 18.3711H11.4893V14.9243C11.4893 13.6552 10.4605 12.6264 9.19147 12.6264C7.92239 12.6264 6.8936 13.6552 6.8936 14.9243V18.3711H3.44679C2.17831 18.3696 1.15036 17.3417 1.14893 16.0732V10.0532C1.14883 9.77181 1.2521 9.50016 1.43913 9.2899L8.33275 1.53458C8.54966 1.28777 8.8629 1.1471 9.19147 1.14894C9.52004 1.14708 9.83328 1.28775 10.0502 1.53456L16.9438 9.28988V9.28988ZM0.580423 8.52657C0.206532 8.94719 0 9.49043 0 10.0532V16.0732C0 17.9768 1.54319 19.52 3.4468 19.52H6.8936C7.52814 19.52 8.04253 19.0056 8.04253 18.3711V14.9243C8.04253 14.2897 8.55693 13.7753 9.19147 13.7753C9.82601 13.7753 10.3404 14.2897 10.3404 14.9243V18.3711C10.3404 19.0056 10.8548 19.52 11.4893 19.52H14.9361C16.8398 19.52 18.3829 17.9768 18.3829 16.0732V10.0532C18.3829 9.49043 18.1764 8.94721 17.8025 8.52659L10.9089 0.771255C10.4736 0.279683 9.84809 -0.00121024 9.19147 0C8.53485 -0.00122976 7.90935 0.279663 7.47402 0.771235L0.580423 8.52657V8.52657Z" fill="white"/>
</svg>
